# xmcd
#
# Track frame offsets:
#	155
#	14295
#	29902
#	43825
#	61505
#	72650
#	88665
#	101827
#	112845
#	127020
#	141865
#	153860
#	172515
#	192747
#	206965
#	221935
#
# Disc length: 3094 seconds
#
# Revision: 1
# Processed by: cddbd v1.5.2PL0 Copyright (c) Steve Scherf et al.
# Submitted via: audiograbber 1.83.01
#
DISCID=f10c1410
DTITLE=André Brasseur - Collection nr. 3
DYEAR=1996
DGENRE=Easy Listening
TTITLE0=Telstar
TTITLE1=The more I see you
TTITLE2=Light my fire
TTITLE3=You and me
TTITLE4=Ah!Ah!Ah!
TTITLE5=Misty
TTITLE6=Summertime
TTITLE7=Atlantik sud
TTITLE8=What have they done to my song
TTITLE9=Till
TTITLE10=Bill
TTITLE11=The white lake
TTITLE12=Classical Experience
TTITLE13=Lucky Jo
TTITLE14=Casino beach
TTITLE15=Red river rock
EXTD=
EXTT0=
EXTT1=
EXTT2=
EXTT3=
EXTT4=
EXTT5=
EXTT6=
EXTT7=
EXTT8=
EXTT9=
EXTT10=
EXTT11=
EXTT12=
EXTT13=
EXTT14=
EXTT15=
PLAYORDER=
